<?xml version="1.0" standalone="no"?>
<!DOCTYPE svg PUBLIC "-//W3C//DTD SVG 20010904//EN"
 "http://www.w3.org/TR/2001/REC-SVG-20010904/DTD/svg10.dtd">
<svg version="1.0" xmlns="http://www.w3.org/2000/svg"
 width="512.000000pt" height="512.000000pt" viewBox="0 0 512.000000 512.000000"
 preserveAspectRatio="xMidYMid meet">
<metadata>
Created by potrace 1.14, written by Peter Selinger 2001-2017
</metadata>
<g transform="translate(0.000000,512.000000) scale(0.100000,-0.100000)"
fill="#000000" stroke="none">
<path d="M2120 4963 c0 -5 6 -15 13 -22 10 -12 8 -13 -8 -7 -52 20 -51 19 -38
6 6 -7 9 -19 6 -26 -3 -9 2 -14 14 -14 27 0 54 -32 44 -49 -5 -8 -16 -11 -24
-8 -10 4 -28 -5 -46 -22 -38 -35 -88 -47 -111 -26 -22 20 -51 20 -44 0 4 -8 4
-15 2 -15 -10 0 -82 41 -87 49 -10 15 -35 17 -37 4 -1 -7 -2 -18 -3 -24 0 -7
-15 -10 -35 -7 -28 3 -36 0 -41 -17 -4 -11 -7 -24 -6 -28 1 -5 -3 -6 -8 -3 -5
4 -22 -5 -36 -18 -24 -23 -26 -29 -17 -56 6 -16 8 -30 5 -30 -3 0 0 -6 6 -13
8 -11 3 -17 -25 -30 -19 -10 -32 -22 -29 -27 3 -6 1 -10 -4 -10 -6 0 -11 -8
-10 -17 0 -11 3 -13 6 -5 5 14 33 17 33 3 0 -5 -24 -17 -52 -27 -74 -24 -135
-68 -169 -123 -27 -41 -29 -52 -23 -99 4 -35 2 -57 -6 -67 -6 -8 -9 -18 -6
-23 3 -6 -6 -17 -20 -27 -14 -9 -23 -19 -20 -22 3 -3 -2 -19 -10 -35 -9 -17
-17 -57 -19 -91 -2 -53 0 -63 22 -85 22 -22 25 -35 28 -111 2 -47 8 -101 14
-120 6 -18 10 -36 9 -40 -2 -20 3 -43 9 -38 11 12 49 -74 63 -143 7 -36 22
-78 33 -94 19 -26 19 -30 4 -41 -22 -16 -35 -52 -43 -123 -5 -49 -4 -60 10
-65 23 -9 62 -97 47 -106 -8 -5 -10 -18 -5 -35 4 -19 9 -24 14 -16 8 12 27
-45 21 -64 -1 -5 7 -6 18 -3 16 4 21 -1 26 -24 4 -16 4 -33 1 -38 -7 -11 17
-21 49 -21 21 0 27 -12 60 -115 21 -63 41 -112 46 -109 5 3 6 -1 3 -9 -3 -8 6
-36 20 -62 21 -38 26 -62 26 -116 0 -120 43 -289 74 -289 7 0 6 -3 -1 -8 -8
-5 0 -21 28 -51 21 -25 39 -52 39 -60 0 -9 7 -26 15 -37 8 -12 11 -25 7 -28
-4 -4 9 -21 28 -37 23 -20 31 -32 22 -36 -16 -6 3 -33 23 -33 24 0 110 -80
115 -107 3 -14 11 -28 19 -31 10 -3 12 0 8 12 -8 21 -5 20 44 -4 81 -42 263
-102 204 -68 -11 7 -26 18 -33 25 -11 11 -10 14 5 20 10 4 24 15 31 25 7 10
24 18 38 18 15 0 24 6 24 16 0 11 5 14 16 10 14 -5 15 -4 4 9 -19 23 -6 42 47
66 68 31 220 147 227 173 3 12 19 37 37 56 38 42 69 90 69 108 0 22 -15 13
-28 -17 -7 -16 -33 -44 -57 -63 -24 -18 -45 -39 -45 -45 0 -11 -31 -17 -77
-16 -7 1 -13 -7 -13 -16 -1 -14 -2 -14 -11 2 -9 15 -12 16 -25 2 -16 -15 -46
-20 -57 -9 -7 8 8 23 48 48 42 27 135 117 135 130 0 7 -3 7 -8 1 -4 -5 -22
-18 -41 -28 -27 -14 -32 -15 -28 -3 5 12 2 13 -16 6 -12 -5 -48 -14 -79 -20
-32 -6 -58 -16 -58 -22 0 -6 -8 -4 -17 4 -10 9 -36 21 -58 28 -22 7 -49 19
-60 26 -11 8 -29 14 -41 14 -11 0 -24 3 -28 7 -4 4 -20 8 -35 9 -35 2 -88 40
-107 77 -8 15 -18 27 -23 27 -8 0 -24 37 -22 51 0 4 -9 15 -19 24 -13 12 -20
14 -20 6 0 -16 -42 35 -64 77 -9 18 -21 30 -26 27 -6 -4 -10 -1 -10 5 0 6 -9
21 -20 33 -13 13 -19 30 -16 42 4 16 0 21 -17 21 -12 0 -25 -4 -29 -10 -4 -6
-10 -8 -13 -4 -3 3 1 13 10 21 23 23 18 37 -15 48 -16 6 -30 15 -30 19 0 4
-11 11 -25 14 -14 4 -25 11 -25 17 0 6 9 9 20 6 14 -4 20 0 20 12 0 9 6 23 13
31 6 8 2 6 -10 -4 -29 -24 -40 -15 -35 28 4 35 22 51 22 20 0 -8 4 -13 9 -10
4 3 16 -3 26 -14 35 -39 56 -19 60 55 1 39 -12 65 -34 65 -6 0 -8 7 -4 17 5
13 2 15 -15 11 -12 -4 -22 -2 -22 4 0 19 -32 41 -67 45 -31 3 -34 2 -28 -17 4
-11 2 -20 -4 -20 -6 0 -11 13 -11 29 0 17 -4 32 -9 35 -4 3 -6 17 -3 31 2 15
0 25 -7 25 -17 0 -14 87 6 155 18 68 20 91 10 121 -6 16 -1 24 18 34 23 12 28
12 48 -8 19 -20 20 -24 7 -33 -11 -8 -4 -9 27 -5 23 3 48 9 57 12 10 4 16 1
16 -9 0 -19 41 -29 88 -22 61 10 142 37 142 47 0 5 -8 7 -17 4 -55 -16 -111
-17 -127 -1 -21 21 -12 35 21 35 15 0 34 7 44 16 23 21 136 36 163 22 12 -6
25 -16 29 -22 4 -6 4 2 1 19 -13 56 -74 85 -174 85 -48 -1 -79 -8 -140 -34 -8
-3 -22 -1 -30 5 -10 7 -11 12 -4 15 7 3 10 14 7 25 -6 21 22 59 43 59 7 0 14
4 16 10 4 12 107 15 177 5 61 -9 92 -34 113 -91 15 -43 37 -44 29 0 -1 4 4 15
11 23 10 13 6 21 -24 48 -20 19 -34 36 -32 38 3 2 -8 18 -23 34 l-28 29 -127
-1 c-101 -1 -128 1 -128 12 0 7 -5 13 -11 13 -5 0 -8 -4 -5 -8 6 -11 -40 -53
-48 -45 -3 4 -6 2 -6 -4 0 -6 -9 -13 -20 -16 -17 -4 -18 -2 -9 16 20 38 42 58
94 82 55 26 165 57 193 54 46 -4 103 2 97 11 -3 5 9 23 28 39 30 27 48 59 73
126 6 19 7 18 14 -5 l6 -25 9 25 c5 14 8 30 7 36 -2 11 61 34 92 34 10 0 14 4
11 10 -3 6 1 7 10 4 8 -4 22 -1 30 6 8 7 22 10 30 6 11 -4 15 2 15 22 0 20 3
23 9 13 8 -12 12 -12 25 -2 9 8 16 10 16 6 0 -4 7 -2 15 5 8 6 18 9 23 6 6 -3
15 1 22 10 11 12 15 12 21 2 7 -10 12 -10 24 3 15 15 65 15 65 0 0 -4 16 -7
36 -7 19 0 39 -6 43 -12 4 -7 21 -15 37 -17 61 -9 68 -12 75 -31 12 -29 10
-37 -6 -30 -12 4 -13 2 -2 -16 6 -12 20 -31 30 -42 9 -11 18 -28 18 -38 1 -10
3 -30 5 -45 1 -16 5 -48 7 -72 3 -25 11 -47 19 -52 24 -13 42 -64 30 -85 -7
-13 -6 -27 5 -47 8 -16 17 -26 20 -23 11 11 54 -109 67 -189 17 -99 30 -197
27 -209 -1 -4 2 -13 7 -20 5 -6 8 -20 7 -31 -12 -108 -16 -184 -10 -226 7 -50
7 -50 23 -27 9 13 21 26 26 30 6 4 7 8 2 8 -6 0 -2 6 8 13 14 10 15 17 6 41
-7 20 -7 32 0 41 7 9 6 16 -5 25 -8 7 -15 16 -15 21 0 14 28 11 34 -3 3 -7 4
-1 1 15 -3 15 -1 27 4 27 10 0 7 229 -4 271 -5 21 -1 31 25 53 17 14 38 26 45
26 9 0 16 15 20 38 3 20 10 56 15 80 13 55 13 124 -1 159 -18 48 -21 119 -5
132 22 19 48 107 44 151 -3 33 -1 37 16 34 11 -2 23 -9 28 -16 5 -9 8 -6 8 10
0 34 -27 92 -55 118 -14 13 -25 34 -25 49 0 14 -9 34 -20 45 -11 11 -16 20
-12 20 4 0 8 9 8 19 0 11 -4 17 -8 15 -4 -3 -8 0 -8 6 0 7 -7 10 -15 6 -10 -3
-15 1 -15 12 0 9 -25 43 -55 74 -47 50 -54 61 -50 90 3 26 -2 39 -25 63 -16
16 -39 52 -51 80 -12 27 -28 56 -37 64 -13 13 -14 11 -7 -17 5 -25 3 -32 -9
-32 -16 0 -20 11 -17 38 6 41 -61 122 -117 143 -37 14 -51 5 -18 -12 16 -8 32
-21 34 -29 4 -13 3 -13 -10 -2 -13 10 -17 10 -20 0 -3 -9 -12 -6 -34 8 -49 33
-80 46 -100 41 -15 -3 -11 -8 19 -21 20 -9 37 -20 37 -24 0 -4 14 -15 30 -24
46 -26 37 -38 -30 -38 -39 0 -60 4 -60 12 0 6 -12 27 -27 47 -16 20 -28 41
-28 46 0 6 -11 12 -25 13 -14 2 -35 13 -46 24 -14 13 -24 16 -29 9 -4 -8 -12
-8 -26 0 -11 5 -30 8 -42 6 l-22 -4 22 -8 c12 -4 24 -12 26 -19 4 -9 -11 -11
-54 -8 -33 3 -80 -1 -105 -8 -34 -10 -48 -10 -57 -1 -14 14 -30 15 -22 1 3 -5
-1 -10 -9 -10 -9 0 -16 6 -16 14 0 8 -13 19 -30 25 -16 5 -30 15 -30 22 0 7
-3 9 -6 6 -4 -4 -20 3 -37 15 -26 18 -30 19 -24 5 6 -16 4 -16 -22 -2 -23 11
-30 12 -34 2 -3 -9 -8 -9 -20 2 -10 7 -17 9 -17 4z m65 -23 c3 -5 -1 -10 -9
-10 -9 0 -16 5 -16 10 0 6 4 10 9 10 6 0 13 -4 16 -10z m805 -151 c0 -6 -4 -7
-10 -4 -5 3 -10 11 -10 16 0 6 5 7 10 4 6 -3 10 -11 10 -16z m-1145 -19 c13
-6 15 -9 5 -9 -8 0 -22 4 -30 9 -18 12 -2 12 25 0z m-90 -20 c3 -5 -1 -10 -9
-10 -9 0 -16 5 -16 10 0 6 4 10 9 10 6 0 13 -4 16 -10z m75 -4 c0 -3 -4 -8
-10 -11 -5 -3 -10 -1 -10 4 0 6 5 11 10 11 6 0 10 -2 10 -4z m1071 -32 c7 -8
9 -17 6 -20 -6 -7 -57 25 -57 36 0 12 38 0 51 -16z m49 -59 c0 -5 -5 -3 -10 5
-5 8 -10 20 -10 25 0 6 5 3 10 -5 5 -8 10 -19 10 -25z m-1245 5 c3 -5 -1 -10
-9 -10 -9 0 -16 5 -16 10 0 6 4 10 9 10 6 0 13 -4 16 -10z m1430 -110 c3 -5 1
-10 -4 -10 -6 0 -11 5 -11 10 0 6 2 10 4 10 3 0 8 -4 11 -10z m305 -422 c0 -6
-7 -5 -15 2 -8 7 -15 17 -15 22 0 6 7 5 15 -2 8 -7 15 -17 15 -22z m-1330
-223 c0 -2 -9 -3 -19 -2 -11 0 -18 5 -15 9 4 6 34 0 34 -7z m90 -19 c0 -2 -7
-7 -16 -10 -8 -3 -12 -2 -9 4 6 10 25 14 25 6z m40 -16 c0 -11 -49 -45 -55
-38 -8 7 37 58 47 52 4 -3 8 -9 8 -14z m-102 -349 c8 -5 -15 -10 -59 -14 -79
-7 -96 -3 -58 12 30 12 100 13 117 2z m-608 -343 c0 -19 -2 -20 -10 -8 -13 19
-13 30 0 30 6 0 10 -10 10 -22z m1730 -18 c0 -5 -4 -10 -10 -10 -5 0 -10 5
-10 10 0 6 5 10 10 10 6 0 10 -4 10 -10z m-1490 -204 c0 -3 -4 -8 -10 -11 -5
-3 -10 -1 -10 4 0 6 5 11 10 11 6 0 10 -2 10 -4z m-4 -201 c-4 -17 -2 -25 6
-25 9 0 9 -3 -1 -9 -17 -11 -41 13 -40 39 0 10 2 11 6 3 2 -7 9 -13 14 -13 4
0 6 7 3 15 -4 8 -1 15 6 15 8 0 10 -9 6 -25z m20 -82 c-10 -10 -19 5 -10 18 6
11 8 11 12 0 2 -7 1 -15 -2 -18z m54 11 c0 -8 -4 -12 -10 -9 -5 3 -10 10 -10
16 0 5 5 9 10 9 6 0 10 -7 10 -16z m-20 -56 c0 -6 -7 -5 -15 2 -8 7 -15 17
-15 22 0 6 7 5 15 -2 8 -7 15 -17 15 -22z m660 -808 c0 -5 -4 -10 -10 -10 -5
0 -10 5 -10 10 0 6 5 10 10 10 6 0 10 -4 10 -10z"/>
<path d="M2060 4900 c-8 -6 -11 -10 -6 -10 5 0 3 -6 -3 -14 -9 -11 -6 -12 14
-8 26 5 29 10 17 29 -5 8 -13 9 -22 3z"/>
<path d="M2870 4880 c8 -5 20 -10 25 -10 6 0 3 5 -5 10 -8 5 -19 10 -25 10 -5
0 -3 -5 5 -10z"/>
<path d="M3221 4604 c0 -11 3 -14 6 -6 3 7 2 16 -1 19 -3 4 -6 -2 -5 -13z"/>
<path d="M3241 4543 c11 -34 19 -42 19 -20 0 7 -7 22 -15 33 -13 17 -14 16 -4
-13z"/>
<path d="M2685 3740 c-22 -5 -47 -7 -56 -4 -9 2 -21 -1 -26 -8 -15 -19 -12
-47 4 -41 7 3 13 0 13 -5 0 -13 50 -8 78 7 10 5 57 11 104 13 80 3 85 4 76 21
-5 10 -15 16 -23 14 -7 -3 -17 -1 -23 5 -8 8 -16 7 -28 -3 -12 -9 -15 -10 -10
-1 8 14 -43 15 -109 2z"/>
<path d="M2945 3688 c4 -13 12 -27 18 -33 7 -7 8 -4 3 8 -3 10 -6 25 -6 33 0
8 -5 14 -11 14 -6 0 -8 -9 -4 -22z"/>
<path d="M2671 3572 c-19 -9 -45 -32 -59 -49 l-25 -33 134 2 c126 2 160 -1
234 -18 30 -7 30 -6 -10 26 -63 51 -75 55 -167 54 -49 0 -88 1 -88 3 0 1 12 9
28 17 23 13 24 15 7 16 -11 0 -35 -8 -54 -18z"/>
<path d="M2917 3551 c23 -22 39 -28 28 -11 -3 5 -16 15 -28 21 l-22 11 22 -21z"/>
<path d="M2280 3480 c0 -5 5 -10 10 -10 6 0 10 5 10 10 0 6 -4 10 -10 10 -5 0
-10 -4 -10 -10z"/>
<path d="M2636 3440 c15 -15 119 -50 148 -50 48 0 35 17 -18 24 -29 3 -73 13
-97 21 -24 9 -39 11 -33 5z"/>
<path d="M3332 3419 c-23 -28 -18 -41 6 -17 9 9 12 9 12 0 0 -14 36 -16 45 -2
8 13 -13 50 -28 49 -7 0 -22 -13 -35 -30z"/>
<path d="M2206 3192 c-66 -67 -79 -95 -50 -106 9 -3 14 -12 12 -18 -3 -7 4
-21 14 -32 21 -23 24 -37 4 -30 -8 3 -16 -4 -20 -18 -5 -19 -8 -20 -15 -8 -18
26 -64 18 -88 -17 -16 -23 -28 -30 -43 -26 -11 3 -20 0 -20 -6 0 -6 4 -11 8
-11 5 0 7 -21 6 -47 -2 -25 4 -65 13 -87 8 -23 16 -52 18 -66 1 -14 3 -29 4
-33 3 -21 35 29 33 52 l-2 26 27 -32 c16 -17 29 -43 29 -57 2 -27 -11 -36 -19
-13 -2 6 -8 8 -13 4 -5 -4 -4 -11 1 -15 15 -11 45 -68 45 -86 0 -26 35 -83 79
-128 l41 -43 101 3 c107 2 183 22 239 62 36 26 37 30 8 23 -21 -4 -20 -2 7 21
33 28 30 42 -6 27 -36 -16 -195 -30 -232 -21 -73 17 -187 91 -187 121 0 12 27
11 35 -1 3 -5 13 -10 22 -10 12 0 14 7 10 30 -4 17 -2 30 3 30 6 0 10 -5 10
-11 0 -5 4 -8 9 -5 5 3 21 -4 35 -15 26 -20 28 -20 40 -4 10 14 21 16 48 11
26 -5 40 -2 51 9 20 19 46 19 53 0 4 -8 15 -15 25 -15 19 0 27 3 87 35 18 9
51 18 72 19 28 1 46 10 62 27 33 37 83 69 107 69 19 0 21 -6 21 -50 0 -27 5
-50 10 -50 6 0 10 3 11 8 1 17 10 61 25 131 14 63 15 79 3 115 -7 22 -26 52
-41 66 -16 13 -28 30 -28 37 0 8 -11 18 -25 23 -14 5 -25 15 -25 22 0 11 -70
82 -103 103 -8 6 -29 20 -46 33 -37 28 -41 15 -6 -18 14 -13 25 -28 25 -33 0
-5 15 -27 34 -49 38 -43 73 -113 100 -196 10 -29 26 -57 37 -62 23 -13 26 -50
4 -50 -9 0 -32 11 -53 25 -52 35 -130 47 -237 39 -49 -4 -99 -7 -110 -6 -81 6
-215 2 -239 -8 -24 -9 -32 -8 -45 4 -13 14 -13 18 4 36 12 13 25 18 38 14 16
-5 19 -3 15 14 -5 17 -2 19 23 15 22 -3 29 0 29 12 0 14 3 14 38 0 49 -21 101
-21 141 -1 37 20 72 52 64 60 -8 8 57 45 100 57 39 10 51 29 18 29 -32 0 -85
-22 -123 -52 -40 -31 -118 -52 -103 -28 5 8 4 11 -3 6 -6 -3 -26 3 -44 14 -18
11 -27 20 -20 20 7 0 10 5 7 11 -4 6 -14 8 -22 4 -9 -3 -42 0 -74 6 -53 10
-59 14 -59 36 0 38 30 82 59 85 28 3 39 23 17 31 -10 4 -38 -18 -80 -61z m474
-347 c6 -3 10 -15 10 -27 0 -14 5 -18 15 -15 8 4 17 2 20 -3 4 -6 -5 -14 -19
-20 -14 -5 -30 -19 -36 -30 -8 -14 -15 -18 -23 -12 -7 5 -46 10 -87 11 -41 0
-122 2 -180 4 l-105 2 -3 33 c-3 33 13 43 35 21 8 -8 13 -8 17 0 4 6 18 11 31
11 13 0 27 5 30 10 3 6 25 10 48 11 23 1 53 4 67 8 28 8 165 5 180 -4z"/>
<path d="M1461 3154 c0 -11 3 -14 6 -6 3 7 2 16 -1 19 -3 4 -6 -2 -5 -13z"/>
<path d="M1900 2980 c0 -5 5 -10 10 -10 6 0 10 5 10 10 0 6 -4 10 -10 10 -5 0
-10 -4 -10 -10z"/>
<path d="M1910 2759 c0 -5 5 -7 10 -4 6 3 10 8 10 11 0 2 -4 4 -10 4 -5 0 -10
-5 -10 -11z"/>
<path d="M3172 2593 c-6 -12 -12 -52 -12 -90 0 -37 -4 -83 -9 -101 -13 -43 4
-32 19 13 6 19 16 35 21 35 5 0 9 5 9 10 0 6 -7 10 -15 10 -11 0 -14 11 -12
43 1 23 6 45 10 48 5 4 7 17 5 30 l-3 24 -13 -22z"/>
<path d="M2996 2415 c-3 -9 0 -15 9 -15 8 0 15 7 15 15 0 8 -4 15 -9 15 -5 0
-11 -7 -15 -15z"/>
<path d="M3176 2394 c-9 -23 -2 -28 13 -10 7 8 8 17 3 20 -6 3 -13 -1 -16 -10z"/>
<path d="M2975 2380 c-3 -5 1 -10 9 -10 9 0 16 5 16 10 0 6 -4 10 -9 10 -6 0
-13 -4 -16 -10z"/>
<path d="M2946 2335 c-9 -13 -16 -31 -16 -39 0 -7 -7 -16 -15 -20 -8 -3 -15
-12 -15 -21 0 -8 -5 -15 -11 -15 -5 0 -7 -5 -3 -11 9 -15 23 2 63 74 32 56 29
81 -3 32z"/>
<path d="M3131 2336 c-8 -9 -11 -19 -7 -23 9 -9 29 13 24 27 -2 8 -8 7 -17 -4z"/>
<path d="M3170 2325 c-8 -16 -29 -44 -49 -62 -28 -26 -31 -31 -12 -26 25 6 85
87 78 106 -2 7 -10 -1 -17 -18z"/>
<path d="M1710 2308 c0 -9 -4 -18 -10 -20 -5 -2 -6 -22 -1 -53 7 -38 9 -43 10
-18 0 17 5 34 9 37 9 5 8 53 -1 63 -4 3 -7 -1 -7 -9z"/>
<path d="M3150 2199 c0 -5 5 -7 10 -4 6 3 10 8 10 11 0 2 -4 4 -10 4 -5 0 -10
-5 -10 -11z"/>
<path d="M3060 2149 c0 -5 5 -7 10 -4 6 3 10 8 10 11 0 2 -4 4 -10 4 -5 0 -10
-5 -10 -11z"/>
<path d="M3146 2104 c-9 -8 -21 -12 -27 -8 -9 5 -10 -1 -5 -22 4 -16 9 -31 12
-33 2 -2 19 12 38 32 18 20 31 38 28 41 -10 11 -30 6 -46 -10z"/>
<path d="M3068 2103 c-20 -5 -33 -33 -15 -33 7 0 18 9 25 20 7 11 11 19 10 19
-2 -1 -10 -3 -20 -6z"/>
<path d="M1736 2075 c4 -8 8 -15 10 -15 2 0 4 7 4 15 0 8 -4 15 -10 15 -5 0
-7 -7 -4 -15z"/>
<path d="M1887 2043 c-4 -3 -7 -14 -7 -23 0 -20 68 -152 84 -162 6 -4 4 -9 -7
-14 -10 -4 -16 -13 -13 -20 3 -8 0 -14 -6 -14 -6 0 -8 -3 -5 -7 4 -3 15 1 25
10 18 16 20 16 36 -2 13 -14 14 -24 7 -45 -11 -27 -51 -38 -51 -13 0 7 -9 18
-20 25 -11 7 -20 17 -20 23 0 6 -13 26 -29 45 -16 18 -34 41 -39 51 -6 10 -14
15 -18 11 -4 -4 1 -18 9 -30 9 -13 30 -42 46 -65 17 -24 37 -56 46 -72 8 -17
36 -46 63 -66 39 -30 53 -36 81 -31 25 4 51 -3 105 -29 72 -35 163 -55 249
-55 64 0 60 16 -5 22 -83 7 -182 55 -249 119 -32 31 -86 76 -119 100 -33 24
-63 53 -66 64 -8 30 -26 67 -46 94 -10 13 -18 39 -18 57 0 32 -16 45 -33 27z
m153 -304 c0 -11 -5 -29 -10 -40 -11 -19 -11 -19 -31 0 l-20 19 23 24 c26 27
38 26 38 -3z"/>
<path d="M2986 2025 c-9 -26 -7 -32 5 -12 6 10 9 21 6 23 -2 3 -7 -2 -11 -11z"/>
<path d="M1760 2016 c0 -8 5 -18 10 -21 6 -3 10 1 10 9 0 8 -4 18 -10 21 -5 3
-10 -1 -10 -9z"/>
<path d="M2970 1890 c-8 -5 -11 -12 -7 -16 4 -4 13 -2 19 4 15 15 7 24 -12 12z"/>
<path d="M2993 1822 c10 -10 17 -24 17 -30 0 -7 5 -12 10 -12 6 0 10 6 10 13
-1 18 -25 47 -40 47 -9 0 -8 -5 3 -18z"/>
<path d="M1962 1784 c4 -21 22 -23 26 -1 2 10 -3 17 -13 17 -10 0 -15 -6 -13
-16z"/>
<path d="M2438 1753 c7 -3 16 -2 19 1 4 3 -2 6 -13 5 -11 0 -14 -3 -6 -6z"/>
<path d="M2615 810 c-3 -5 -1 -10 4 -10 6 0 11 5 11 10 0 6 -2 10 -4 10 -3 0
-8 -4 -11 -10z"/>
<path d="M4380 653 c0 -4 5 -15 10 -23 8 -13 10 -13 10 2 0 9 -4 20 -10 23 -5
3 -10 3 -10 -2z"/>
<path d="M4391 522 c0 -39 5 -116 13 -170 8 -53 17 -130 21 -169 4 -40 11 -73
16 -73 5 0 9 -5 9 -11 0 -5 9 -30 20 -55 16 -35 26 -44 45 -44 14 0 25 1 25 3
0 6 -30 146 -38 179 -5 20 -7 39 -4 42 2 3 -1 13 -8 21 -11 13 -10 18 9 31 17
13 20 19 10 30 -6 8 -18 14 -25 14 -17 0 -18 22 -2 38 9 9 8 16 -5 30 -9 10
-17 25 -17 32 0 7 -7 21 -16 31 -19 21 -11 39 17 39 29 0 23 16 -11 30 -16 7
-30 19 -30 26 0 8 -4 14 -9 14 -5 0 -12 8 -14 18 -3 9 -5 -16 -6 -56z"/>
<path d="M585 332 c6 -34 3 -48 -11 -63 -9 -11 -19 -34 -20 -52 -6 -68 -11
-81 -32 -90 -19 -9 -25 -24 -21 -53 0 -4 -3 -10 -8 -13 -12 -9 -34 -61 -25
-61 4 0 32 25 62 55 63 64 83 71 69 23 -21 -75 -18 -78 71 -78 44 0 80 4 80 9
0 15 -61 194 -77 224 -8 17 -24 39 -34 50 -10 12 -19 26 -19 31 0 6 -10 22
-21 36 l-20 25 6 -43z"/>
<path d="M4556 225 c-3 -9 0 -15 9 -15 9 0 12 6 9 15 -4 8 -7 15 -9 15 -2 0
-5 -7 -9 -15z"/>
<path d="M4580 163 c0 -17 -5 -33 -10 -35 -7 -2 -7 -15 0 -38 5 -19 10 -47 10
-62 0 -24 4 -28 30 -28 23 0 30 5 30 19 0 11 -4 23 -10 26 -5 3 -10 19 -10 35
0 16 -5 32 -11 36 -6 3 -9 15 -6 25 3 10 -1 26 -9 36 -12 16 -13 15 -14 -14z"/>
<path d="M2620 30 c0 -5 5 -10 10 -10 6 0 10 5 10 10 0 6 -4 10 -10 10 -5 0
-10 -4 -10 -10z"/>
</g>
</svg>
